<svg width="150" height="150" viewBox="0 0 279 279" fill="none" xmlns="http://www.w3.org/2000/svg">
<rect width="279" height="279" rx="35" fill="#6E9AF5"/>
<path d="M51 179.606V86.2771C51 84.4407 52.0067 82.7521 53.6221 81.8787L109.789 51.5135C113.891 49.2958 118.527 53.4047 116.819 57.7437L88.3302 130.097C87.0043 133.465 89.5844 137.082 93.2002 136.924L119.504 135.778C122.614 135.643 125.09 138.351 124.678 141.437L118.568 187.107C117.913 192.004 124.002 194.783 127.272 191.079L188.97 121.198C191.82 117.97 189.528 112.889 185.222 112.889H150C145.88 112.889 143.528 108.185 146 104.889L179.165 60.6667C180.661 58.6708 183.401 58.0837 185.584 59.2909L226.419 81.8694C228.012 82.7498 229 84.4257 229 86.2451V181.297C229 183.123 228.004 184.805 226.402 185.682L142.444 231.661C140.925 232.494 139.083 232.48 137.576 231.625L53.5332 183.955C51.9675 183.067 51 181.406 51 179.606Z" fill="white"/>
</svg>
