<svg width="279" height="104" viewBox="0 0 279 104" fill="none" xmlns="http://www.w3.org/2000/svg">
<rect width="279" height="104" fill="#6E9AF5"/>
<path d="M101.353 66.405C100.543 66.405 99.9433 66.285 99.5533 66.045C99.1933 65.805 98.9683 65.475 98.8783 65.055C98.7883 64.635 98.7433 64.185 98.7433 63.705V46.875C98.7433 46.395 98.7883 45.96 98.8783 45.57C98.9683 45.18 99.2083 44.865 99.5983 44.625C99.9883 44.385 100.603 44.265 101.443 44.265C102.313 44.265 102.943 44.445 103.333 44.805C103.753 45.165 103.963 45.735 103.963 46.515L103.558 47.775C103.708 47.445 103.963 47.085 104.323 46.695C104.683 46.305 105.118 45.915 105.628 45.525C106.168 45.135 106.768 44.82 107.428 44.58C108.088 44.34 108.778 44.22 109.498 44.22C110.488 44.22 111.388 44.385 112.198 44.715C113.038 45.045 113.773 45.525 114.403 46.155C115.063 46.785 115.633 47.55 116.113 48.45C116.623 47.67 117.193 46.965 117.823 46.335C118.453 45.675 119.188 45.165 120.028 44.805C120.868 44.415 121.813 44.22 122.863 44.22C124.603 44.22 126.058 44.655 127.228 45.525C128.428 46.395 129.328 47.64 129.928 49.26C130.558 50.85 130.873 52.755 130.873 54.975V63.705C130.873 64.215 130.813 64.68 130.693 65.1C130.603 65.49 130.363 65.805 129.973 66.045C129.613 66.285 129.013 66.405 128.173 66.405C127.333 66.405 126.718 66.27 126.328 66C125.938 65.76 125.698 65.445 125.608 65.055C125.518 64.635 125.473 64.17 125.473 63.66V54.93C125.473 53.82 125.338 52.86 125.068 52.05C124.798 51.24 124.393 50.61 123.853 50.16C123.343 49.71 122.668 49.485 121.828 49.485C120.928 49.485 120.148 49.71 119.488 50.16C118.858 50.58 118.363 51.195 118.003 52.005C117.643 52.815 117.463 53.805 117.463 54.975V63.75C117.463 64.26 117.388 64.74 117.238 65.19C117.088 65.61 116.788 65.925 116.338 66.135C115.918 66.375 115.303 66.465 114.493 66.405C113.743 66.375 113.188 66.225 112.828 65.955C112.498 65.685 112.288 65.355 112.198 64.965C112.138 64.545 112.108 64.11 112.108 63.66V54.93C112.108 53.82 111.973 52.86 111.703 52.05C111.433 51.21 111.028 50.58 110.488 50.16C109.978 49.71 109.288 49.485 108.418 49.485C107.488 49.485 106.693 49.725 106.033 50.205C105.403 50.685 104.923 51.33 104.593 52.14C104.263 52.95 104.098 53.88 104.098 54.93V63.75C104.098 64.23 104.038 64.68 103.918 65.1C103.828 65.52 103.588 65.835 103.198 66.045C102.838 66.285 102.223 66.405 101.353 66.405ZM144.574 66.405C143.194 66.405 141.919 66.165 140.749 65.685C139.609 65.175 138.604 64.455 137.734 63.525C136.864 62.595 136.189 61.485 135.709 60.195C135.229 58.905 134.989 57.48 134.989 55.92V46.965C134.989 46.455 135.034 46.005 135.124 45.615C135.214 45.195 135.454 44.865 135.844 44.625C136.234 44.385 136.834 44.265 137.644 44.265C138.514 44.265 139.129 44.385 139.489 44.625C139.879 44.865 140.119 45.195 140.209 45.615C140.299 46.035 140.344 46.5 140.344 47.01V55.92C140.344 57 140.524 57.93 140.884 58.71C141.274 59.49 141.829 60.105 142.549 60.555C143.269 60.975 144.154 61.185 145.204 61.185C146.284 61.185 147.199 60.975 147.949 60.555C148.729 60.105 149.329 59.49 149.749 58.71C150.169 57.9 150.379 56.97 150.379 55.92V46.92C150.379 46.41 150.424 45.96 150.514 45.57C150.604 45.15 150.844 44.835 151.234 44.625C151.624 44.385 152.239 44.265 153.079 44.265C153.919 44.265 154.519 44.385 154.879 44.625C155.239 44.865 155.464 45.195 155.554 45.615C155.674 46.035 155.734 46.485 155.734 46.965V63.84C155.734 64.29 155.674 64.71 155.554 65.1C155.464 65.49 155.224 65.805 154.834 66.045C154.474 66.285 153.874 66.405 153.034 66.405C152.434 66.405 151.954 66.33 151.594 66.18C151.264 66.06 151.009 65.895 150.829 65.685C150.679 65.445 150.574 65.205 150.514 64.965C150.484 64.725 150.469 64.485 150.469 64.245L150.829 63.03C150.649 63.3 150.379 63.63 150.019 64.02C149.659 64.38 149.209 64.755 148.669 65.145C148.159 65.505 147.559 65.805 146.869 66.045C146.179 66.285 145.414 66.405 144.574 66.405ZM167.919 66.45C166.809 66.45 165.819 66.375 164.949 66.225C164.109 66.075 163.374 65.82 162.744 65.46C162.144 65.1 161.649 64.62 161.259 64.02C160.869 63.39 160.569 62.625 160.359 61.725C160.179 60.825 160.089 59.745 160.089 58.485V36.795C160.089 36.285 160.134 35.835 160.224 35.445C160.344 35.025 160.584 34.695 160.944 34.455C161.334 34.185 161.949 34.05 162.789 34.05C163.629 34.05 164.229 34.17 164.589 34.41C164.979 34.65 165.219 34.98 165.309 35.4C165.429 35.79 165.489 36.24 165.489 36.75V58.26C165.489 58.83 165.519 59.31 165.579 59.7C165.669 60.06 165.804 60.36 165.984 60.6C166.194 60.81 166.449 60.96 166.749 61.05C167.079 61.14 167.469 61.185 167.919 61.185C168.309 61.185 168.654 61.23 168.954 61.32C169.284 61.41 169.539 61.635 169.719 61.995C169.929 62.355 170.034 62.94 170.034 63.75C170.034 64.59 169.929 65.205 169.719 65.595C169.539 65.985 169.284 66.225 168.954 66.315C168.624 66.405 168.279 66.45 167.919 66.45ZM182.408 66.45C180.938 66.45 179.678 66.3 178.628 66C177.578 65.7 176.723 65.235 176.063 64.605C175.403 63.975 174.908 63.165 174.578 62.175C174.278 61.155 174.128 59.955 174.128 58.575V39.495C174.128 38.955 174.173 38.49 174.263 38.1C174.383 37.71 174.623 37.41 174.983 37.2C175.373 36.96 175.973 36.84 176.783 36.84C177.623 36.84 178.223 36.96 178.583 37.2C178.973 37.44 179.213 37.77 179.303 38.19C179.423 38.58 179.483 39.015 179.483 39.495V58.395C179.483 59.025 179.528 59.535 179.618 59.925C179.738 60.315 179.903 60.615 180.113 60.825C180.353 61.005 180.653 61.14 181.013 61.23C181.403 61.29 181.868 61.32 182.408 61.32C182.978 61.32 183.458 61.365 183.848 61.455C184.268 61.545 184.583 61.77 184.793 62.13C185.003 62.46 185.108 63.015 185.108 63.795C185.108 64.635 184.973 65.25 184.703 65.64C184.463 66 184.133 66.225 183.713 66.315C183.323 66.405 182.888 66.45 182.408 66.45ZM172.283 44.715L176.918 44.76L183.128 44.58C183.638 44.58 184.088 44.64 184.478 44.76C184.898 44.85 185.228 45.09 185.468 45.48C185.708 45.84 185.828 46.44 185.828 47.28C185.828 48.06 185.708 48.645 185.468 49.035C185.228 49.425 184.913 49.68 184.523 49.8C184.133 49.89 183.683 49.935 183.173 49.935L177.143 49.845L172.148 49.89C171.398 49.86 170.873 49.65 170.573 49.26C170.303 48.84 170.168 48.165 170.168 47.235C170.168 46.365 170.333 45.735 170.663 45.345C171.023 44.925 171.563 44.715 172.283 44.715ZM192.063 66.45C191.253 66.45 190.653 66.315 190.263 66.045C189.873 65.805 189.633 65.49 189.543 65.1C189.453 64.68 189.408 64.215 189.408 63.705V46.965C189.408 46.485 189.453 46.05 189.543 45.66C189.663 45.24 189.903 44.91 190.263 44.67C190.653 44.43 191.268 44.31 192.108 44.31C192.948 44.31 193.548 44.43 193.908 44.67C194.298 44.91 194.538 45.24 194.628 45.66C194.718 46.08 194.763 46.545 194.763 47.055V63.75C194.763 64.26 194.718 64.725 194.628 65.145C194.538 65.535 194.298 65.85 193.908 66.09C193.548 66.33 192.933 66.45 192.063 66.45ZM192.063 39.945C191.193 39.945 190.548 39.825 190.128 39.585C189.738 39.315 189.483 38.955 189.363 38.505C189.273 38.055 189.228 37.56 189.228 37.02C189.228 36.45 189.273 35.955 189.363 35.535C189.483 35.115 189.753 34.785 190.173 34.545C190.593 34.275 191.238 34.14 192.108 34.14C193.008 34.14 193.653 34.275 194.043 34.545C194.433 34.815 194.688 35.175 194.808 35.625C194.928 36.045 194.988 36.54 194.988 37.11C194.988 37.62 194.928 38.1 194.808 38.55C194.688 39 194.433 39.345 194.043 39.585C193.653 39.825 192.993 39.945 192.063 39.945ZM195.456 75.405C195.006 75.405 194.586 75.345 194.196 75.225C193.776 75.135 193.446 74.91 193.206 74.55C192.936 74.19 192.801 73.59 192.801 72.75C192.801 71.97 192.936 71.4 193.206 71.04C193.446 70.68 193.776 70.44 194.196 70.32C194.586 70.2 195.036 70.14 195.546 70.14C196.086 70.14 196.626 70.08 197.166 69.96C197.706 69.87 198.201 69.66 198.651 69.33C199.101 69.03 199.446 68.565 199.686 67.935C199.956 67.335 200.091 66.525 200.091 65.505V46.695C200.091 46.245 200.136 45.84 200.226 45.48C200.346 45.09 200.601 44.79 200.991 44.58C201.381 44.34 201.981 44.22 202.791 44.22C203.601 44.22 204.186 44.34 204.546 44.58C204.906 44.82 205.131 45.15 205.221 45.57C205.341 45.99 205.401 46.44 205.401 46.92V65.595C205.401 67.245 205.116 68.685 204.546 69.915C204.006 71.175 203.271 72.21 202.341 73.02C201.411 73.83 200.346 74.43 199.146 74.82C197.976 75.21 196.746 75.405 195.456 75.405ZM202.701 39.9C201.621 39.9 200.871 39.69 200.451 39.27C200.061 38.85 199.866 38.085 199.866 36.975C199.866 35.895 200.061 35.16 200.451 34.77C200.871 34.38 201.636 34.185 202.746 34.185C203.826 34.185 204.561 34.395 204.951 34.815C205.371 35.205 205.581 35.955 205.581 37.065C205.581 38.145 205.371 38.895 204.951 39.315C204.561 39.705 203.811 39.9 202.701 39.9ZM221.118 66.72C219.168 66.72 217.458 66.405 215.988 65.775C214.548 65.145 213.333 64.29 212.343 63.21C211.383 62.1 210.648 60.87 210.138 59.52C209.658 58.14 209.418 56.715 209.418 55.245C209.418 53.085 209.913 51.165 210.903 49.485C211.893 47.805 213.258 46.485 214.998 45.525C216.768 44.565 218.793 44.085 221.073 44.085C222.693 44.085 224.118 44.34 225.348 44.85C226.578 45.36 227.598 46.035 228.408 46.875C229.248 47.685 229.878 48.585 230.298 49.575C230.748 50.565 230.973 51.525 230.973 52.455C230.973 54.045 230.583 55.2 229.803 55.92C229.053 56.64 228.108 57 226.968 57H215.088C215.118 58.02 215.433 58.905 216.033 59.655C216.663 60.405 217.443 60.99 218.373 61.41C219.333 61.8 220.308 61.995 221.298 61.995C222.048 61.995 222.708 61.95 223.278 61.86C223.878 61.77 224.388 61.665 224.808 61.545C225.228 61.395 225.588 61.245 225.888 61.095C226.218 60.945 226.518 60.81 226.788 60.69C227.058 60.57 227.313 60.495 227.553 60.465C227.883 60.435 228.213 60.51 228.543 60.69C228.873 60.87 229.143 61.185 229.353 61.635C229.533 61.935 229.653 62.22 229.713 62.49C229.803 62.73 229.848 62.97 229.848 63.21C229.848 63.81 229.488 64.38 228.768 64.92C228.048 65.43 227.028 65.85 225.708 66.18C224.418 66.54 222.888 66.72 221.118 66.72ZM215.088 53.805H224.313C224.823 53.805 225.213 53.73 225.483 53.58C225.753 53.4 225.888 53.04 225.888 52.5C225.888 51.81 225.678 51.195 225.258 50.655C224.838 50.085 224.268 49.65 223.548 49.35C222.828 49.02 221.988 48.855 221.028 48.855C219.918 48.855 218.913 49.08 218.013 49.53C217.113 49.95 216.393 50.535 215.853 51.285C215.343 52.035 215.088 52.875 215.088 53.805ZM245.162 66.45C243.692 66.45 242.432 66.3 241.382 66C240.332 65.7 239.477 65.235 238.817 64.605C238.157 63.975 237.662 63.165 237.332 62.175C237.032 61.155 236.882 59.955 236.882 58.575V39.495C236.882 38.955 236.927 38.49 237.017 38.1C237.137 37.71 237.377 37.41 237.737 37.2C238.127 36.96 238.727 36.84 239.537 36.84C240.377 36.84 240.977 36.96 241.337 37.2C241.727 37.44 241.967 37.77 242.057 38.19C242.177 38.58 242.237 39.015 242.237 39.495V58.395C242.237 59.025 242.282 59.535 242.372 59.925C242.492 60.315 242.657 60.615 242.867 60.825C243.107 61.005 243.407 61.14 243.767 61.23C244.157 61.29 244.622 61.32 245.162 61.32C245.732 61.32 246.212 61.365 246.602 61.455C247.022 61.545 247.337 61.77 247.547 62.13C247.757 62.46 247.862 63.015 247.862 63.795C247.862 64.635 247.727 65.25 247.457 65.64C247.217 66 246.887 66.225 246.467 66.315C246.077 66.405 245.642 66.45 245.162 66.45ZM235.037 44.715L239.672 44.76L245.882 44.58C246.392 44.58 246.842 44.64 247.232 44.76C247.652 44.85 247.982 45.09 248.222 45.48C248.462 45.84 248.582 46.44 248.582 47.28C248.582 48.06 248.462 48.645 248.222 49.035C247.982 49.425 247.667 49.68 247.277 49.8C246.887 49.89 246.437 49.935 245.927 49.935L239.897 49.845L234.902 49.89C234.152 49.86 233.627 49.65 233.327 49.26C233.057 48.84 232.922 48.165 232.922 47.235C232.922 46.365 233.087 45.735 233.417 45.345C233.777 44.925 234.317 44.715 235.037 44.715Z" fill="white"/>
<path d="M30 64.4727V39.2933C30 38.7429 30.3015 38.2367 30.7854 37.9744L45.5816 29.9578C46.8117 29.2913 48.2039 30.523 47.6922 31.8252L40.1953 50.9068C39.7984 51.917 40.5725 53.0012 41.6568 52.9539L48.3903 52.6599C49.3231 52.6192 50.0661 53.4315 49.9425 54.357L48.3723 66.1209C48.1761 67.5908 50.0043 68.4236 50.9846 67.3109L67.1796 48.9279C68.0331 47.9591 67.3452 46.4364 66.0541 46.4364H57.1129C55.8776 46.4364 55.1718 45.0267 55.912 44.0376L64.6534 32.3564C65.1025 31.7563 65.9257 31.5798 66.5814 31.9431L77.4609 37.9717C77.9379 38.236 78.2339 38.7384 78.2339 39.2837V64.9304C78.2339 65.4779 77.9356 65.9819 77.4556 66.2453L54.8515 78.6514C54.395 78.9019 53.8412 78.8978 53.3885 78.6405L30.7587 65.7767C30.2897 65.5101 30 65.0122 30 64.4727Z" fill="white"/>
</svg>
